<?xml version="1.0" encoding="UTF-8"?>
<svg version="1.1" xmlns="http://www.w3.org/2000/svg" width="170" height="44">
<path d="M0 0 C3.96 0 7.92 0 12 0 C12.28875 1.36125 12.5775 2.7225 12.875 4.125 C13.69731147 7.84302258 14.71188034 11.41166665 16 15 C15.01 15 14.02 15 13 15 C13 16.98 13 18.96 13 21 C15.97 21 18.94 21 22 21 C22 14.07 22 7.14 22 0 C25.63 0 29.26 0 33 0 C36.08035714 10.04464286 36.08035714 10.04464286 37 15 C36.34 15.33 35.68 15.66 35 16 C34.34444881 18.52733235 34.34444881 18.52733235 34 21 C37.3 21 40.6 21 44 21 C44.4813341 22.72856459 44.95996971 24.45788071 45.4375 26.1875 C45.70433594 27.15042969 45.97117188 28.11335938 46.24609375 29.10546875 C46.92880018 31.72663697 47.49892195 34.338935 48 37 C47.34 37 46.68 37 46 37 C45.67 39.31 45.34 41.62 45 44 C41.04 44 37.08 44 33 44 C33 36.74 33 29.48 33 22 C29.7 22 26.4 22 23 22 C24.08733452 27.12600561 25.22637492 32.05918728 27 37 C26.01 37 25.02 37 24 37 C24 39.31 24 41.62 24 44 C19.71 44 15.42 44 11 44 C11 36.74 11 29.48 11 22 C7.37 22 3.74 22 0 22 C0 14.74 0 7.48 0 0 Z " fill="#0CA19A" transform="translate(122,0)"/>
<path d="M0 0 C3.63 0 7.26 0 11 0 C14.08035714 10.04464286 14.08035714 10.04464286 15 15 C14.01 15.495 14.01 15.495 13 16 C12.34444881 18.52733235 12.34444881 18.52733235 12 21 C15.3 21 18.6 21 22 21 C22.4813341 22.72856459 22.95996971 24.45788071 23.4375 26.1875 C23.70433594 27.15042969 23.97117188 28.11335938 24.24609375 29.10546875 C24.92880018 31.72663697 25.49892195 34.338935 26 37 C25.34 37 24.68 37 24 37 C23.67 39.31 23.34 41.62 23 44 C19.04 44 15.08 44 11 44 C11 36.74 11 29.48 11 22 C7.37 22 3.74 22 0 22 C0 14.74 0 7.48 0 0 Z " fill="#0f172a" transform="translate(144,0)"/>
<path d="M0 0 C1.588125 -0.061875 3.17625 -0.12375 4.8125 -0.1875 C6.15248047 -0.23970703 6.15248047 -0.23970703 7.51953125 -0.29296875 C10 0 10 0 11.84375 1.32421875 C13 3 13 3 12.6875 6 C12.460625 6.99 12.23375 7.98 12 9 C12 9.99 12 10.98 12 12 C12.66 12.33 13.32 12.66 14 13 C14.19335938 12.39671875 14.38671875 11.7934375 14.5859375 11.171875 C14.84632812 10.37265625 15.10671875 9.5734375 15.375 8.75 C15.63023438 7.96109375 15.88546875 7.1721875 16.1484375 6.359375 C16.95173667 4.13372042 17.89711662 2.09068328 19 0 C21.32421875 0.15234375 21.32421875 0.15234375 24 1 C26.20289583 4.48655858 27.45266263 8.1537614 29 12 C29.33 8.04 29.66 4.08 30 0 C34.59037956 1.14759489 35.33669182 2.29039218 38 6 C38.33 4.02 38.66 2.04 39 0 C40.32 0 41.64 0 43 0 C43 4.95 43 9.9 43 15 C38.40962044 13.85240511 37.66330818 12.70960782 35 9 C34.67 10.98 34.34 12.96 34 15 C27.84765625 15.09765625 27.84765625 15.09765625 26 15 C25.67 14.67 25.34 14.34 25 14 C21.5 13.83333333 21.5 13.83333333 18 14 C17.67 14.33 17.34 14.66 17 15 C9.74349442 15.59479554 9.74349442 15.59479554 6.5 13 C6.005 12.34 5.51 11.68 5 11 C4.67 12.32 4.34 13.64 4 15 C2.68 15 1.36 15 0 15 C0 10.05 0 5.1 0 0 Z M4 4 C4 4.99 4 5.98 4 7 C5.65 6.67 7.3 6.34 9 6 C9 5.34 9 4.68 9 4 C7.35 4 5.7 4 4 4 Z M21 5 C20.67 6.32 20.34 7.64 20 9 C20.99 8.67 21.98 8.34 23 8 C22.34 7.01 21.68 6.02 21 5 Z " fill="#0f172a" transform="translate(56,29)"/>
<path d="M0 0 C3.96 0 7.92 0 12 0 C12.28875 1.36125 12.5775 2.7225 12.875 4.125 C13.69731147 7.84302258 14.71188034 11.41166665 16 15 C15.01 15 14.02 15 13 15 C13.020625 15.969375 13.04125 16.93875 13.0625 17.9375 C13 21 13 21 12 22 C7.99779347 22.14355117 4.00558317 22.04216403 0 22 C0 14.74 0 7.48 0 0 Z " fill="#FAB133" transform="translate(122,0)"/>
<path d="M0 0 C3.63 0 7.26 0 11 0 C14.08035714 10.04464286 14.08035714 10.04464286 15 15 C14.01 15.495 14.01 15.495 13 16 C12.34227572 19.02934491 12.34227572 19.02934491 12 22 C8.04 22 4.08 22 0 22 C0 14.74 0 7.48 0 0 Z " fill="#E96D08" transform="translate(144,0)"/>
<path d="M0 0 C1.588125 -0.061875 3.17625 -0.12375 4.8125 -0.1875 C6.15248047 -0.23970703 6.15248047 -0.23970703 7.51953125 -0.29296875 C10 0 10 0 11.8046875 1.35546875 C13.49026234 3.67451126 13.35031189 5.19750488 13 8 C12.01 9.485 12.01 9.485 11 11 C11.99 12.32 12.98 13.64 14 15 C11.75 15.25 11.75 15.25 9 15 C6.6875 13 6.6875 13 5 11 C4.67 12.32 4.34 13.64 4 15 C2.68 15 1.36 15 0 15 C0 10.05 0 5.1 0 0 Z M4 4 C4 4.99 4 5.98 4 7 C5.65 7 7.3 7 9 7 C9 6.01 9 5.02 9 4 C7.35 4 5.7 4 4 4 Z " fill="#0f172a" transform="translate(28,29)"/>
<path d="M0 0 C1.51400391 0.01740234 1.51400391 0.01740234 3.05859375 0.03515625 C4.07050781 0.04417969 5.08242188 0.05320312 6.125 0.0625 C7.29869141 0.07990234 7.29869141 0.07990234 8.49609375 0.09765625 C8.49609375 1.41765625 8.49609375 2.73765625 8.49609375 4.09765625 C5.85609375 4.09765625 3.21609375 4.09765625 0.49609375 4.09765625 C0.49609375 4.75765625 0.49609375 5.41765625 0.49609375 6.09765625 C3.13609375 6.09765625 5.77609375 6.09765625 8.49609375 6.09765625 C8.49609375 7.08765625 8.49609375 8.07765625 8.49609375 9.09765625 C5.85609375 9.09765625 3.21609375 9.09765625 0.49609375 9.09765625 C0.49609375 10.08765625 0.49609375 11.07765625 0.49609375 12.09765625 C3.13609375 12.09765625 5.77609375 12.09765625 8.49609375 12.09765625 C8.49609375 13.08765625 8.49609375 14.07765625 8.49609375 15.09765625 C4.53609375 15.09765625 0.57609375 15.09765625 -3.50390625 15.09765625 C-3.53076037 12.78521833 -3.55023466 10.47269355 -3.56640625 8.16015625 C-3.57800781 6.87238281 -3.58960938 5.58460937 -3.6015625 4.2578125 C-3.47417331 0.13549818 -3.47417331 0.13549818 0 0 Z " fill="#0f172a" transform="translate(17.50390625,28.90234375)"/>
<path d="M0 0 C3.96 0 7.92 0 12 0 C12 1.32 12 2.64 12 4 C9.36 4 6.72 4 4 4 C4 4.66 4 5.32 4 6 C6.31 6 8.62 6 11 6 C11 6.99 11 7.98 11 9 C8.69 9 6.38 9 4 9 C4 9.99 4 10.98 4 12 C6.64 12 9.28 12 12 12 C12 12.99 12 13.98 12 15 C8.04 15 4.08 15 0 15 C0 10.05 0 5.1 0 0 Z " fill="#0f172a" transform="translate(115,29)"/>
<path d="M0 0 C3.63 0 7.26 0 11 0 C11 1.32 11 2.64 11 4 C8.69 4 6.38 4 4 4 C4 4.66 4 5.32 4 6 C5.98 6 7.96 6 10 6 C10.33 7.32 10.66 8.64 11 10 C8.69 10 6.38 10 4 10 C4 11.65 4 13.3 4 15 C2.68 15 1.36 15 0 15 C0 10.05 0 5.1 0 0 Z " fill="#0f172a" transform="translate(43,29)"/>
<path d="M0 0 C1.27875 0.165 2.5575 0.33 3.875 0.5 C4.535 1.49 5.195 2.48 5.875 3.5 C4.885 4.16 3.895 4.82 2.875 5.5 C0.8125 5.0625 0.8125 5.0625 -1.125 4.5 C-2.115 4.995 -2.115 4.995 -3.125 5.5 C-3.125 7.15 -3.125 8.8 -3.125 10.5 C-2.3825 10.644375 -1.64 10.78875 -0.875 10.9375 C1.39527739 11.40187492 3.63259479 11.91863569 5.875 12.5 C5.875 13.16 5.875 13.82 5.875 14.5 C2.42535617 16.22482191 -1.35258462 15.99055218 -5.125 15.5 C-7.86225983 13.34337104 -8.05318389 11.9821939 -8.5625 8.5625 C-7.783133 3.10693101 -5.5869958 0.22347983 0 0 Z " fill="#0f172a" transform="translate(108.125,28.5)"/>
<path d="M0 0 C0.66 0.33 1.32 0.66 2 1 C1.67 2.32 1.34 3.64 1 5 C0.236875 4.79375 -0.52625 4.5875 -1.3125 4.375 C-4.21885944 3.66608797 -4.21885944 3.66608797 -7 6 C-7.25030977 8.58380177 -7.25030977 8.58380177 -7 11 C-4.03 11 -1.06 11 2 11 C1.67 12.32 1.34 13.64 1 15 C-0.43655854 15.08131463 -1.8744483 15.13933559 -3.3125 15.1875 C-4.51326172 15.23970703 -4.51326172 15.23970703 -5.73828125 15.29296875 C-8 15 -8 15 -9.765625 13.76953125 C-12.04897752 10.49624424 -11.62498611 6.8138357 -11 3 C-8.09945606 -0.82871799 -4.51811973 -0.33467554 0 0 Z " fill="#0f172a" transform="translate(11,29)"/>
<path d="M0 0 C0.33 0 0.66 0 1 0 C1 6.93 1 13.86 1 21 C3.97 20.67 6.94 20.34 10 20 C10.33 19.01 10.66 18.02 11 17 C11.66 17.33 12.32 17.66 13 18 C12.67 19.32 12.34 20.64 12 22 C8.04 22 4.08 22 0 22 C0 14.74 0 7.48 0 0 Z " fill="#E3B652" transform="translate(122,0)"/>
<path d="M0 0 C1.98 0 3.96 0 6 0 C6 1.98 6 3.96 6 6 C5.67 5.34 5.34 4.68 5 4 C4.01 4 3.02 4 2 4 C2 3.34 2 2.68 2 2 C1.34 2 0.68 2 0 2 C0 1.34 0 0.68 0 0 Z " fill="#EDB63C" transform="translate(128,0)"/>
</svg>
