<svg xmlns="http://www.w3.org/2000/svg" width="63.147" height="40" viewBox="0 0 63.147 40">
    <defs>
        <style>
            .cls-1{fill:#003250}
        </style>
    </defs>
    <path id="RVB_COULEUR-01" d="M299.446 286.477l3.576-3.922a7.844 7.844 0 0 0 5.378 2.045 8.158 8.158 0 0 0 8.152-8.008v-1.467a6.061 6.061 0 0 1-5.215 2.237c-2.554 0-6.777-1.537-6.777-7.514v-4.1h-4.342v11.1h-5.3v-11.1H289.9v11.1h-5.3v-11.1h-16.767v-4.725l1.186-.008c2.933 0 6.575-1.162 6.575-3.357 0-1.771-1.677-2.443-3.485-2.443a8.188 8.188 0 1 0 5.791 14.055l3.753 3.753a13.5 13.5 0 1 1-9.578-23.122c5.738 0 8.7 3.893 8.7 7.069a4.623 4.623 0 0 1-2.307 4.041v.008h6.126l.029-3.427a7.526 7.526 0 0 1 2.1-5.45 8.2 8.2 0 0 1 5.837-1.924c.251 0 .515.008.779.021v5.075a6.29 6.29 0 0 0-.47-.016c-1.792 0-2.781.766-2.937 2.274-.012.107-.045 3.452-.045 3.452h5.022V258a7.84 7.84 0 0 1 1.994-5.763 8.093 8.093 0 0 1 5.953-2.035c.251 0 .515.008.779.021v5.077a6.29 6.29 0 0 0-.47-.016c-1.965 0-2.958.915-2.958 2.719v3.015h9.64v8.025a3.152 3.152 0 0 0 3.32 3.469 3.2 3.2 0 0 0 3.37-2.476v-9.026h5.306v15.452a13.44 13.44 0 0 1-22.4 10.014z" class="cls-1" transform="translate(-258.7 -249.9)"/>
</svg>
